<mxfile host="app.diagrams.net" modified="2022-09-11T20:18:07.285Z" agent="5.0 (Windows NT 10.0; Win64; x64) AppleWebKit/537.36 (KHTML, like Gecko) Chrome/105.0.0.0 Safari/537.36" etag="nY5R9sX9kPKo0dLL_mqi" version="20.3.0" type="github">
  <diagram name="Page-1" id="e7e014a7-5840-1c2e-5031-d8a46d1fe8dd">
    <mxGraphModel dx="1043" dy="921" grid="1" gridSize="10" guides="1" tooltips="1" connect="1" arrows="1" fold="1" page="1" pageScale="1" pageWidth="827" pageHeight="1169" background="#FFFFFF" math="0" shadow="0">
      <root>
        <mxCell id="0" />
        <mxCell id="1" parent="0" />
        <mxCell id="OjJyJQDLenGOai32vspC-41" value="" style="ellipse;whiteSpace=wrap;html=1;aspect=fixed;fillColor=#330000;" vertex="1" parent="1">
          <mxGeometry x="403" y="140" width="20" height="20" as="geometry" />
        </mxCell>
        <mxCell id="OjJyJQDLenGOai32vspC-42" value="" style="endArrow=classic;html=1;rounded=0;" edge="1" parent="1">
          <mxGeometry width="50" height="50" relative="1" as="geometry">
            <mxPoint x="412" y="160" as="sourcePoint" />
            <mxPoint x="412.4" y="210" as="targetPoint" />
          </mxGeometry>
        </mxCell>
        <mxCell id="OjJyJQDLenGOai32vspC-55" value="" style="edgeStyle=orthogonalEdgeStyle;rounded=0;orthogonalLoop=1;jettySize=auto;html=1;fontSize=18;" edge="1" parent="1" source="OjJyJQDLenGOai32vspC-43">
          <mxGeometry relative="1" as="geometry">
            <mxPoint x="413" y="300" as="targetPoint" />
          </mxGeometry>
        </mxCell>
        <mxCell id="OjJyJQDLenGOai32vspC-43" value="&lt;font style=&quot;font-size: 17px;&quot;&gt;Receive Email&lt;/font&gt;" style="rounded=1;whiteSpace=wrap;html=1;fillColor=#FFFFFF;" vertex="1" parent="1">
          <mxGeometry x="354" y="210" width="120" height="50" as="geometry" />
        </mxCell>
        <mxCell id="OjJyJQDLenGOai32vspC-48" value="&lt;h1&gt;&lt;span style=&quot;background-color: initial;&quot;&gt;Email sorting&lt;/span&gt;&lt;br&gt;&lt;/h1&gt;&lt;div&gt;&lt;span style=&quot;background-color: initial;&quot;&gt;&lt;font style=&quot;font-size: 18px;&quot;&gt;Smals group assessment&lt;/font&gt;&lt;/span&gt;&lt;/div&gt;" style="text;html=1;strokeColor=none;fillColor=none;spacing=5;spacingTop=-20;whiteSpace=wrap;overflow=hidden;rounded=0;fontSize=17;" vertex="1" parent="1">
          <mxGeometry x="70" y="20" width="220" height="140" as="geometry" />
        </mxCell>
        <mxCell id="OjJyJQDLenGOai32vspC-70" style="edgeStyle=orthogonalEdgeStyle;rounded=0;orthogonalLoop=1;jettySize=auto;html=1;entryX=0.5;entryY=0;entryDx=0;entryDy=0;fontSize=18;exitX=0.75;exitY=1;exitDx=0;exitDy=0;" edge="1" parent="1" source="OjJyJQDLenGOai32vspC-53" target="OjJyJQDLenGOai32vspC-59">
          <mxGeometry relative="1" as="geometry" />
        </mxCell>
        <mxCell id="OjJyJQDLenGOai32vspC-71" style="edgeStyle=orthogonalEdgeStyle;rounded=0;orthogonalLoop=1;jettySize=auto;html=1;entryX=0.5;entryY=0;entryDx=0;entryDy=0;fontSize=18;exitX=0.25;exitY=1;exitDx=0;exitDy=0;" edge="1" parent="1" source="OjJyJQDLenGOai32vspC-53" target="OjJyJQDLenGOai32vspC-58">
          <mxGeometry relative="1" as="geometry" />
        </mxCell>
        <mxCell id="OjJyJQDLenGOai32vspC-53" value="" style="rounded=0;whiteSpace=wrap;html=1;fontSize=18;fillColor=#000000;" vertex="1" parent="1">
          <mxGeometry x="349" y="300" width="130" height="20" as="geometry" />
        </mxCell>
        <mxCell id="OjJyJQDLenGOai32vspC-91" value="" style="edgeStyle=orthogonalEdgeStyle;rounded=0;orthogonalLoop=1;jettySize=auto;html=1;fontSize=18;endSize=6;entryX=0.5;entryY=0;entryDx=0;entryDy=0;" edge="1" parent="1" source="OjJyJQDLenGOai32vspC-58" target="OjJyJQDLenGOai32vspC-76">
          <mxGeometry relative="1" as="geometry" />
        </mxCell>
        <mxCell id="OjJyJQDLenGOai32vspC-58" value="Sort&amp;nbsp;&lt;br&gt;email" style="rounded=1;whiteSpace=wrap;html=1;fontSize=18;fillColor=#FFFFFF;" vertex="1" parent="1">
          <mxGeometry x="140" y="360" width="120" height="60" as="geometry" />
        </mxCell>
        <mxCell id="OjJyJQDLenGOai32vspC-63" value="" style="edgeStyle=orthogonalEdgeStyle;rounded=0;orthogonalLoop=1;jettySize=auto;html=1;fontSize=18;" edge="1" parent="1" source="OjJyJQDLenGOai32vspC-59" target="OjJyJQDLenGOai32vspC-62">
          <mxGeometry relative="1" as="geometry" />
        </mxCell>
        <mxCell id="OjJyJQDLenGOai32vspC-59" value="Send&amp;nbsp;&lt;br&gt;Confirmation" style="rounded=1;whiteSpace=wrap;html=1;fontSize=18;fillColor=#FFFFFF;" vertex="1" parent="1">
          <mxGeometry x="570" y="360" width="120" height="60" as="geometry" />
        </mxCell>
        <mxCell id="OjJyJQDLenGOai32vspC-62" value="Display&amp;nbsp;&lt;br&gt;Confirmation" style="rounded=1;whiteSpace=wrap;html=1;fontSize=18;fillColor=#FFFFFF;" vertex="1" parent="1">
          <mxGeometry x="570" y="555" width="120" height="60" as="geometry" />
        </mxCell>
        <mxCell id="OjJyJQDLenGOai32vspC-78" value="" style="edgeStyle=orthogonalEdgeStyle;rounded=0;orthogonalLoop=1;jettySize=auto;html=1;fontSize=18;" edge="1" parent="1" source="OjJyJQDLenGOai32vspC-76" target="OjJyJQDLenGOai32vspC-77">
          <mxGeometry relative="1" as="geometry" />
        </mxCell>
        <mxCell id="OjJyJQDLenGOai32vspC-90" value="" style="edgeStyle=orthogonalEdgeStyle;rounded=0;orthogonalLoop=1;jettySize=auto;html=1;fontSize=18;endSize=6;entryX=0.5;entryY=0;entryDx=0;entryDy=0;" edge="1" parent="1" source="OjJyJQDLenGOai32vspC-76" target="OjJyJQDLenGOai32vspC-79">
          <mxGeometry relative="1" as="geometry" />
        </mxCell>
        <mxCell id="OjJyJQDLenGOai32vspC-76" value="" style="rhombus;whiteSpace=wrap;html=1;fontSize=18;fillColor=#fa6800;fontColor=#000000;strokeColor=#C73500;" vertex="1" parent="1">
          <mxGeometry x="185" y="480" width="30" height="40" as="geometry" />
        </mxCell>
        <mxCell id="OjJyJQDLenGOai32vspC-77" value="Put in Spam folder" style="rounded=1;whiteSpace=wrap;html=1;fontSize=18;" vertex="1" parent="1">
          <mxGeometry x="40" y="550" width="120" height="60" as="geometry" />
        </mxCell>
        <mxCell id="OjJyJQDLenGOai32vspC-79" value="" style="rounded=1;whiteSpace=wrap;html=1;fontSize=18;" vertex="1" parent="1">
          <mxGeometry x="234" y="550" width="120" height="60" as="geometry" />
        </mxCell>
        <mxCell id="OjJyJQDLenGOai32vspC-81" value="[spam]" style="text;html=1;strokeColor=none;fillColor=none;align=center;verticalAlign=middle;whiteSpace=wrap;rounded=0;fontSize=18;" vertex="1" parent="1">
          <mxGeometry x="100" y="470" width="60" height="30" as="geometry" />
        </mxCell>
        <mxCell id="OjJyJQDLenGOai32vspC-82" value="[else]" style="text;html=1;strokeColor=none;fillColor=none;align=center;verticalAlign=middle;whiteSpace=wrap;rounded=0;fontSize=18;" vertex="1" parent="1">
          <mxGeometry x="229" y="470" width="60" height="30" as="geometry" />
        </mxCell>
        <mxCell id="OjJyJQDLenGOai32vspC-96" style="edgeStyle=orthogonalEdgeStyle;rounded=0;orthogonalLoop=1;jettySize=auto;html=1;exitX=0.5;exitY=1;exitDx=0;exitDy=0;entryX=0.5;entryY=0;entryDx=0;entryDy=0;fontSize=18;endSize=6;" edge="1" parent="1" source="OjJyJQDLenGOai32vspC-93" target="OjJyJQDLenGOai32vspC-94">
          <mxGeometry relative="1" as="geometry" />
        </mxCell>
        <mxCell id="OjJyJQDLenGOai32vspC-93" value="" style="rounded=0;whiteSpace=wrap;html=1;fontSize=18;fillColor=#000000;" vertex="1" parent="1">
          <mxGeometry x="349" y="1000" width="130" height="20" as="geometry" />
        </mxCell>
        <mxCell id="OjJyJQDLenGOai32vspC-94" value="" style="ellipse;html=1;shape=endState;fillColor=#000000;strokeColor=#ff0000;fontSize=18;" vertex="1" parent="1">
          <mxGeometry x="399" y="1060" width="30" height="30" as="geometry" />
        </mxCell>
        <mxCell id="OjJyJQDLenGOai32vspC-98" value="" style="edgeStyle=orthogonalEdgeStyle;rounded=0;orthogonalLoop=1;jettySize=auto;html=1;fontSize=18;endSize=6;" edge="1" parent="1" source="OjJyJQDLenGOai32vspC-97" target="OjJyJQDLenGOai32vspC-93">
          <mxGeometry relative="1" as="geometry" />
        </mxCell>
        <mxCell id="OjJyJQDLenGOai32vspC-97" value="Delete messages" style="rounded=1;whiteSpace=wrap;html=1;fontSize=18;" vertex="1" parent="1">
          <mxGeometry x="353" y="880" width="120" height="60" as="geometry" />
        </mxCell>
      </root>
    </mxGraphModel>
  </diagram>
</mxfile>
